<svg id="svg" version="1.1" xmlns="http://www.w3.org/2000/svg" xmlns:xlink="http://www.w3.org/1999/xlink" width="400" height="266.6666666666667" viewBox="0, 0, 400,266.6666666666667"><g id="svgg"><path id="path0" d="M47.467 111.733 L 47.467 117.867 53.333 117.867 L 59.200 117.867 59.200 111.733 L 59.200 105.600 53.333 105.600 L 47.467 105.600 47.467 111.733 M74.133 111.733 L 74.133 117.867 80.000 117.867 L 85.867 117.867 85.867 111.733 L 85.867 105.600 80.000 105.600 L 74.133 105.600 74.133 111.733 M235.895 106.022 C 235.806 106.254,235.733 109.014,235.733 112.155 L 235.733 117.867 241.733 117.867 L 247.733 117.867 247.733 111.733 L 247.733 105.600 241.895 105.600 C 236.818 105.600,236.036 105.655,235.895 106.022 M262.562 106.022 C 262.473 106.254,262.400 109.014,262.400 112.155 L 262.400 117.867 268.400 117.867 L 274.400 117.867 274.400 111.733 L 274.400 105.600 268.562 105.600 C 263.484 105.600,262.703 105.655,262.562 106.022 M60.800 125.067 L 60.800 131.200 66.667 131.200 L 72.533 131.200 72.533 125.067 L 72.533 118.933 66.667 118.933 L 60.800 118.933 60.800 125.067 M87.467 125.067 L 87.467 131.200 93.333 131.200 L 99.200 131.200 99.200 125.067 L 99.200 118.933 93.333 118.933 L 87.467 118.933 87.467 125.067 M249.229 119.355 C 249.140 119.587,249.067 122.347,249.067 125.488 L 249.067 131.200 255.067 131.200 L 261.067 131.200 261.067 125.067 L 261.067 118.933 255.229 118.933 C 250.151 118.933,249.369 118.988,249.229 119.355 M275.895 119.355 C 275.806 119.587,275.733 122.347,275.733 125.488 L 275.733 131.200 281.733 131.200 L 287.733 131.200 287.733 125.067 L 287.733 118.933 281.895 118.933 C 276.818 118.933,276.036 118.988,275.895 119.355 M74.133 138.400 L 74.133 144.533 80.000 144.533 L 85.867 144.533 85.867 138.400 L 85.867 132.267 80.000 132.267 L 74.133 132.267 74.133 138.400 M100.800 138.400 L 100.800 144.533 106.667 144.533 L 112.533 144.533 112.533 138.400 L 112.533 132.267 106.667 132.267 L 100.800 132.267 100.800 138.400 M262.562 132.688 C 262.473 132.920,262.400 135.680,262.400 138.822 L 262.400 144.533 268.400 144.533 L 274.400 144.533 274.400 138.400 L 274.400 132.267 268.562 132.267 C 263.484 132.267,262.703 132.322,262.562 132.688 M289.229 132.688 C 289.140 132.920,289.067 135.680,289.067 138.822 L 289.067 144.533 295.067 144.533 L 301.067 144.533 301.067 138.400 L 301.067 132.267 295.229 132.267 C 290.151 132.267,289.369 132.322,289.229 132.688 " stroke="none" fill="#fbfbfb" fill-rule="evenodd"></path><path id="path1" d="M46.726 104.948 C 45.858 105.556,45.788 117.930,46.649 118.391 C 46.961 118.557,49.536 118.667,53.154 118.667 C 58.369 118.667,59.164 118.721,59.305 119.088 C 59.394 119.320,59.467 122.196,59.467 125.479 C 59.467 132.744,58.665 132.000,66.487 132.000 C 71.702 132.000,72.497 132.055,72.638 132.422 C 72.727 132.654,72.800 135.530,72.800 138.812 C 72.800 144.441,72.829 144.797,73.316 145.057 C 74.083 145.468,86.465 145.428,86.880 145.013 C 87.110 144.784,87.200 143.021,87.200 138.768 C 87.200 135.510,87.273 132.654,87.362 132.422 C 87.606 131.785,99.060 131.785,99.305 132.422 C 99.394 132.654,99.467 135.530,99.467 138.812 C 99.467 144.441,99.496 144.797,99.982 145.057 C 100.750 145.468,113.132 145.428,113.547 145.013 C 113.778 144.782,113.867 142.896,113.867 138.207 L 113.867 131.720 113.183 131.460 C 112.806 131.317,109.806 131.200,106.516 131.200 L 100.533 131.200 100.533 124.793 L 100.533 118.387 99.849 118.127 C 99.473 117.984,96.473 117.867,93.183 117.867 L 87.200 117.867 87.200 111.460 L 87.200 105.053 86.516 104.793 C 85.296 104.329,74.087 104.462,73.393 104.948 C 72.809 105.357,72.800 105.457,72.800 111.615 L 72.800 117.867 66.667 117.867 L 60.533 117.867 60.533 111.460 L 60.533 105.053 59.849 104.793 C 58.629 104.329,47.421 104.462,46.726 104.948 M235.051 104.912 C 234.512 105.306,234.225 116.984,234.725 118.200 C 234.900 118.626,235.472 118.667,241.308 118.667 L 247.698 118.667 247.783 125.000 C 247.829 128.483,247.964 131.483,248.082 131.667 C 248.245 131.918,249.864 132.000,254.665 132.000 L 261.032 132.000 261.116 138.333 C 261.162 141.817,261.297 144.817,261.416 145.000 C 261.785 145.570,274.754 145.470,275.234 144.893 C 275.512 144.559,275.632 142.965,275.733 138.293 L 275.867 132.133 281.783 132.062 L 287.698 131.990 287.783 138.328 C 287.829 141.814,287.964 144.817,288.082 145.000 C 288.452 145.571,301.421 145.470,301.901 144.892 C 302.571 144.083,302.421 132.139,301.733 131.620 C 301.295 131.289,300.124 131.215,295.151 131.208 L 289.102 131.200 289.018 124.944 C 288.912 117.092,289.721 117.886,281.818 117.875 L 275.769 117.867 275.684 111.611 C 275.578 103.754,276.404 104.553,268.384 104.542 C 260.389 104.531,261.221 103.725,261.116 111.578 L 261.031 117.867 255.067 117.867 L 249.102 117.867 249.018 111.611 C 248.938 105.721,248.902 105.332,248.400 104.953 C 247.636 104.376,235.834 104.340,235.051 104.912 M59.838 105.488 C 59.927 105.720,60.000 108.720,60.000 112.155 L 60.000 118.400 66.667 118.400 L 73.333 118.400 73.333 125.067 L 73.333 131.733 67.182 131.733 C 59.151 131.733,60.000 132.554,60.000 124.791 L 60.000 118.400 53.849 118.400 C 50.119 118.400,47.495 118.291,47.182 118.124 C 46.588 117.806,46.375 106.644,46.943 105.582 C 47.329 104.861,59.563 104.772,59.838 105.488 M86.505 105.488 C 86.594 105.720,86.667 108.720,86.667 112.155 L 86.667 118.400 80.000 118.400 L 73.333 118.400 73.333 112.249 C 73.333 108.519,73.442 105.895,73.609 105.582 C 73.995 104.861,86.230 104.772,86.505 105.488 M248.205 111.800 L 248.276 118.400 254.938 118.400 L 261.600 118.400 261.600 125.067 L 261.600 131.733 255.449 131.733 C 247.418 131.733,248.267 132.554,248.267 124.791 L 248.267 118.400 242.116 118.400 C 238.386 118.400,235.762 118.291,235.449 118.124 C 234.812 117.783,234.636 106.004,235.258 105.382 C 235.499 105.141,237.201 105.076,241.858 105.129 L 248.133 105.200 248.205 111.800 M274.871 111.800 L 274.943 118.400 268.271 118.400 L 261.600 118.400 261.600 112.053 C 261.600 107.422,261.688 105.619,261.925 105.382 C 262.166 105.141,263.868 105.076,268.525 105.129 L 274.800 105.200 274.871 111.800 M99.838 118.822 C 99.927 119.054,100.000 122.054,100.000 125.488 L 100.000 131.733 106.505 131.733 C 112.190 131.733,113.030 131.786,113.171 132.155 C 113.648 133.397,113.337 144.513,112.818 144.791 C 112.509 144.956,110.041 145.067,106.667 145.067 C 99.232 145.067,100.000 145.866,100.000 138.124 L 100.000 131.733 93.333 131.733 L 86.667 131.733 86.667 125.067 L 86.667 118.400 93.171 118.400 C 98.857 118.400,99.697 118.453,99.838 118.822 M288.205 125.129 L 288.276 131.724 294.871 131.795 L 301.467 131.867 301.538 138.100 C 301.589 142.474,301.519 144.443,301.306 144.700 C 300.926 145.157,289.620 145.239,288.782 144.791 C 288.295 144.529,288.267 144.169,288.267 138.124 L 288.267 131.733 281.600 131.733 L 274.933 131.733 274.933 125.062 L 274.933 118.391 281.533 118.462 L 288.133 118.533 288.205 125.129 M85.971 119.088 C 86.060 119.320,86.133 122.140,86.133 125.355 L 86.133 131.200 80.000 131.200 L 73.867 131.200 73.867 125.355 C 73.867 122.140,73.940 119.320,74.029 119.088 C 74.273 118.451,85.727 118.451,85.971 119.088 M274.400 124.933 L 274.400 131.200 268.400 131.200 L 262.400 131.200 262.400 125.111 C 262.400 121.762,262.480 118.942,262.578 118.844 C 262.676 118.747,265.376 118.667,268.578 118.667 L 274.400 118.667 274.400 124.933 M86.667 138.124 C 86.667 145.866,87.435 145.067,80.000 145.067 C 72.565 145.067,73.333 145.866,73.333 138.124 L 73.333 131.733 80.000 131.733 L 86.667 131.733 86.667 138.124 M274.933 138.080 C 274.933 142.661,274.844 144.516,274.613 144.747 C 274.200 145.160,262.881 145.200,262.116 144.791 C 261.628 144.529,261.600 144.169,261.600 138.124 L 261.600 131.733 268.267 131.733 L 274.933 131.733 274.933 138.080 " stroke="none" fill="#343434" fill-rule="evenodd"></path><path id="path2" d="M46.943 105.582 C 46.375 106.644,46.588 117.806,47.182 118.124 C 47.495 118.291,50.119 118.400,53.849 118.400 L 60.000 118.400 60.000 124.791 C 60.000 132.554,59.151 131.733,67.182 131.733 L 73.333 131.733 73.333 138.124 C 73.333 145.866,72.565 145.067,80.000 145.067 C 87.435 145.067,86.667 145.866,86.667 138.124 L 86.667 131.733 93.333 131.733 L 100.000 131.733 100.000 138.124 C 100.000 144.169,100.028 144.529,100.516 144.791 C 101.206 145.160,112.128 145.160,112.818 144.791 C 113.337 144.513,113.648 133.397,113.171 132.155 C 113.030 131.786,112.190 131.733,106.505 131.733 L 100.000 131.733 100.000 125.488 C 100.000 122.054,99.927 119.054,99.838 118.822 C 99.697 118.453,98.857 118.400,93.171 118.400 L 86.667 118.400 86.667 112.155 C 86.667 108.720,86.594 105.720,86.505 105.488 C 86.230 104.772,73.995 104.861,73.609 105.582 C 73.442 105.895,73.333 108.519,73.333 112.249 L 73.333 118.400 66.667 118.400 L 60.000 118.400 60.000 112.155 C 60.000 108.720,59.927 105.720,59.838 105.488 C 59.563 104.772,47.329 104.861,46.943 105.582 M235.258 105.382 C 234.636 106.004,234.812 117.783,235.449 118.124 C 235.762 118.291,238.386 118.400,242.116 118.400 L 248.267 118.400 248.267 124.791 C 248.267 132.554,247.418 131.733,255.449 131.733 L 261.600 131.733 261.600 138.124 C 261.600 144.169,261.628 144.529,262.116 144.791 C 262.881 145.200,274.200 145.160,274.613 144.747 C 274.844 144.516,274.933 142.661,274.933 138.080 L 274.933 131.733 281.600 131.733 L 288.267 131.733 288.267 138.124 C 288.267 144.169,288.295 144.529,288.782 144.791 C 289.620 145.239,300.926 145.157,301.306 144.700 C 301.519 144.443,301.589 142.474,301.538 138.100 L 301.467 131.867 294.871 131.795 L 288.276 131.724 288.205 125.129 L 288.133 118.533 281.538 118.462 L 274.943 118.391 274.871 111.795 L 274.800 105.200 268.567 105.128 C 264.193 105.078,262.224 105.147,261.967 105.361 C 261.674 105.604,261.600 106.955,261.600 112.033 L 261.600 118.400 254.938 118.400 L 248.276 118.400 248.205 111.800 L 248.133 105.200 241.858 105.129 C 237.201 105.076,235.499 105.141,235.258 105.382 M59.200 111.733 L 59.200 117.867 53.333 117.867 L 47.467 117.867 47.467 111.733 L 47.467 105.600 53.333 105.600 L 59.200 105.600 59.200 111.733 M85.867 111.733 L 85.867 117.867 80.000 117.867 L 74.133 117.867 74.133 111.733 L 74.133 105.600 80.000 105.600 L 85.867 105.600 85.867 111.733 M247.733 111.733 L 247.733 117.867 241.733 117.867 L 235.733 117.867 235.733 112.155 C 235.733 109.014,235.806 106.254,235.895 106.022 C 236.036 105.655,236.818 105.600,241.895 105.600 L 247.733 105.600 247.733 111.733 M274.400 111.733 L 274.400 117.867 268.400 117.867 L 262.400 117.867 262.400 112.155 C 262.400 109.014,262.473 106.254,262.562 106.022 C 262.703 105.655,263.484 105.600,268.562 105.600 L 274.400 105.600 274.400 111.733 M86.667 125.067 L 86.667 131.733 80.000 131.733 L 73.333 131.733 73.333 125.067 L 73.333 118.400 80.000 118.400 L 86.667 118.400 86.667 125.067 M274.933 125.067 L 274.933 131.733 268.267 131.733 L 261.600 131.733 261.600 125.067 L 261.600 118.400 268.267 118.400 L 274.933 118.400 274.933 125.067 M72.533 125.067 L 72.533 131.200 66.667 131.200 L 60.800 131.200 60.800 125.067 L 60.800 118.933 66.667 118.933 L 72.533 118.933 72.533 125.067 M99.200 125.067 L 99.200 131.200 93.333 131.200 L 87.467 131.200 87.467 125.067 L 87.467 118.933 93.333 118.933 L 99.200 118.933 99.200 125.067 M261.067 125.067 L 261.067 131.200 255.067 131.200 L 249.067 131.200 249.067 125.488 C 249.067 122.347,249.140 119.587,249.229 119.355 C 249.369 118.988,250.151 118.933,255.229 118.933 L 261.067 118.933 261.067 125.067 M287.733 125.067 L 287.733 131.200 281.733 131.200 L 275.733 131.200 275.733 125.488 C 275.733 122.347,275.806 119.587,275.895 119.355 C 276.036 118.988,276.818 118.933,281.895 118.933 L 287.733 118.933 287.733 125.067 M85.867 138.400 L 85.867 144.533 80.000 144.533 L 74.133 144.533 74.133 138.400 L 74.133 132.267 80.000 132.267 L 85.867 132.267 85.867 138.400 M112.533 138.400 L 112.533 144.533 106.667 144.533 L 100.800 144.533 100.800 138.400 L 100.800 132.267 106.667 132.267 L 112.533 132.267 112.533 138.400 M274.400 138.400 L 274.400 144.533 268.400 144.533 L 262.400 144.533 262.400 138.822 C 262.400 135.680,262.473 132.920,262.562 132.688 C 262.703 132.322,263.484 132.267,268.562 132.267 L 274.400 132.267 274.400 138.400 M301.067 138.400 L 301.067 144.533 295.067 144.533 L 289.067 144.533 289.067 138.822 C 289.067 135.680,289.140 132.920,289.229 132.688 C 289.369 132.322,290.151 132.267,295.229 132.267 L 301.067 132.267 301.067 138.400 " stroke="none" fill="#cccccc" fill-rule="evenodd"></path><path id="path3" d="M19.933 90.324 L 19.200 90.435 19.200 104.951 L 19.200 119.467 25.867 119.467 L 32.533 119.467 32.533 126.133 L 32.533 132.800 39.200 132.800 L 45.867 132.800 45.867 139.467 L 45.867 146.133 52.533 146.133 L 59.200 146.133 59.200 152.800 L 59.200 159.467 106.667 159.467 L 154.133 159.467 154.133 152.800 L 154.133 146.133 160.800 146.133 L 167.467 146.133 167.467 139.467 L 167.467 132.800 174.133 132.800 L 180.800 132.800 180.800 119.467 L 180.800 106.133 193.333 106.133 L 205.867 106.133 205.867 119.467 L 205.867 132.800 212.533 132.800 L 219.200 132.800 219.200 139.467 L 219.200 146.133 225.867 146.133 L 232.533 146.133 232.533 152.800 L 232.533 159.467 280.000 159.467 L 327.467 159.467 327.467 152.800 L 327.467 146.133 334.133 146.133 L 340.800 146.133 340.800 139.467 L 340.800 132.800 347.467 132.800 L 354.133 132.800 354.133 126.133 L 354.133 119.467 360.800 119.467 L 367.467 119.467 367.467 104.968 L 367.467 90.470 366.467 90.304 C 365.374 90.124,21.127 90.144,19.933 90.324 M60.267 104.794 C 60.600 105.005,60.681 106.113,60.751 111.457 L 60.835 117.867 66.670 117.867 L 72.506 117.867 72.586 111.640 C 72.648 106.848,72.751 105.313,73.033 104.974 C 73.453 104.468,86.157 104.304,86.933 104.794 C 87.267 105.005,87.347 106.113,87.417 111.457 L 87.502 117.867 93.684 117.871 C 97.107 117.873,100.045 117.988,100.267 118.127 C 100.600 118.338,100.681 119.446,100.751 124.790 L 100.835 131.200 107.017 131.204 C 110.441 131.206,113.379 131.321,113.600 131.461 C 113.933 131.671,114.014 132.777,114.084 138.106 C 114.193 146.426,115.011 145.600,106.667 145.600 C 98.383 145.600,99.200 146.388,99.200 138.400 L 99.200 132.267 93.333 132.267 L 87.467 132.267 87.467 138.400 C 87.467 146.388,88.284 145.600,80.000 145.600 C 71.716 145.600,72.533 146.388,72.533 138.400 L 72.533 132.267 66.400 132.267 C 58.428 132.267,59.200 133.039,59.200 125.067 L 59.200 118.933 53.067 118.933 C 45.051 118.933,45.815 119.715,45.920 111.627 C 45.981 106.846,46.084 105.313,46.366 104.974 C 46.786 104.468,59.491 104.304,60.267 104.794 M248.551 104.809 C 249.039 105.071,249.067 105.431,249.067 111.476 L 249.067 117.867 255.067 117.867 L 261.067 117.867 261.067 111.520 C 261.067 106.939,261.156 105.084,261.387 104.853 C 261.802 104.438,274.449 104.398,275.218 104.809 C 275.705 105.071,275.733 105.431,275.733 111.476 L 275.733 117.867 281.884 117.867 C 289.916 117.867,289.067 117.046,289.067 124.809 L 289.067 131.200 295.218 131.200 C 303.255 131.200,302.400 130.360,302.400 138.261 C 302.400 146.440,303.260 145.600,294.893 145.600 C 286.898 145.600,287.733 146.427,287.733 138.509 L 287.733 132.256 281.800 132.328 L 275.867 132.400 275.800 138.533 C 275.715 146.380,276.548 145.600,268.256 145.600 C 260.227 145.600,261.067 146.428,261.067 138.514 L 261.067 132.267 254.819 132.267 C 246.910 132.267,247.733 133.090,247.733 125.181 L 247.733 118.933 241.486 118.933 C 236.162 118.933,235.176 118.871,234.819 118.514 C 234.274 117.969,234.183 105.391,234.720 104.853 C 235.135 104.438,247.783 104.398,248.551 104.809 M74.133 125.067 L 74.133 131.200 80.000 131.200 L 85.867 131.200 85.867 125.067 L 85.867 118.933 80.000 118.933 L 74.133 118.933 74.133 125.067 M262.578 119.111 C 262.480 119.209,262.400 121.969,262.400 125.244 L 262.400 131.200 268.400 131.200 L 274.400 131.200 274.400 125.067 L 274.400 118.933 268.578 118.933 C 265.376 118.933,262.676 119.013,262.578 119.111 " stroke="none" fill="#0c0c0c" fill-rule="evenodd"></path><path id="path4" d="M234.677 104.921 C 234.501 105.133,234.412 105.523,234.480 105.787 C 234.580 106.172,234.611 106.150,234.636 105.680 C 234.653 105.357,234.877 104.971,235.133 104.821 C 235.390 104.672,235.465 104.546,235.299 104.541 C 235.134 104.537,234.854 104.708,234.677 104.921 M248.302 104.859 C 248.542 105.054,248.798 105.450,248.871 105.740 C 248.992 106.217,249.008 106.212,249.036 105.676 C 249.055 105.308,248.841 104.976,248.467 104.795 C 247.949 104.544,247.927 104.553,248.302 104.859 M261.344 104.921 C 261.167 105.133,261.079 105.523,261.147 105.787 C 261.247 106.172,261.278 106.150,261.302 105.680 C 261.319 105.357,261.543 104.971,261.800 104.821 C 262.057 104.672,262.131 104.546,261.966 104.541 C 261.801 104.537,261.521 104.708,261.344 104.921 M274.969 104.859 C 275.208 105.054,275.465 105.450,275.538 105.740 C 275.659 106.217,275.674 106.212,275.702 105.676 C 275.722 105.308,275.508 104.976,275.133 104.795 C 274.616 104.544,274.593 104.553,274.969 104.859 M45.981 111.867 C 45.981 115.240,46.019 116.583,46.066 114.852 C 46.112 113.120,46.112 110.360,46.066 108.718 C 46.019 107.077,45.981 108.493,45.981 111.867 M60.648 111.867 C 60.648 115.240,60.686 116.583,60.733 114.852 C 60.779 113.120,60.779 110.360,60.732 108.718 C 60.686 107.077,60.647 108.493,60.648 111.867 M72.648 111.867 C 72.648 115.240,72.686 116.583,72.733 114.852 C 72.779 113.120,72.779 110.360,72.732 108.718 C 72.686 107.077,72.647 108.493,72.648 111.867 M87.314 111.867 C 87.315 115.240,87.353 116.583,87.399 114.852 C 87.446 113.120,87.446 110.360,87.399 108.718 C 87.352 107.077,87.314 108.493,87.314 111.867 M288.302 118.192 C 288.542 118.387,288.798 118.784,288.871 119.073 C 288.992 119.551,289.008 119.545,289.036 119.009 C 289.055 118.641,288.841 118.309,288.467 118.128 C 287.949 117.877,287.927 117.886,288.302 118.192 M46.518 118.514 C 46.960 118.872,47.929 118.925,53.184 118.876 L 59.333 118.819 53.067 118.676 C 49.620 118.598,46.620 118.434,46.400 118.314 C 46.180 118.193,46.233 118.283,46.518 118.514 M77.000 118.866 C 78.650 118.913,81.350 118.913,83.000 118.866 C 84.650 118.819,83.300 118.781,80.000 118.781 C 76.700 118.781,75.350 118.819,77.000 118.866 M238.349 118.866 C 240.154 118.912,243.034 118.912,244.749 118.866 C 246.464 118.819,244.987 118.781,241.467 118.782 C 237.947 118.782,236.544 118.820,238.349 118.866 M262.574 118.867 C 262.506 118.977,264.269 119.036,266.492 118.998 C 273.857 118.873,274.607 118.775,268.616 118.720 C 265.361 118.691,262.642 118.757,262.574 118.867 M59.314 125.200 C 59.315 128.573,59.353 129.917,59.399 128.185 C 59.446 126.453,59.446 123.693,59.399 122.052 C 59.352 120.410,59.314 121.827,59.314 125.200 M73.981 125.200 C 73.981 128.573,74.019 129.917,74.066 128.185 C 74.112 126.453,74.112 123.693,74.066 122.052 C 74.019 120.410,73.981 121.827,73.981 125.200 M85.981 125.200 C 85.981 128.573,86.019 129.917,86.066 128.185 C 86.112 126.453,86.112 123.693,86.066 122.052 C 86.019 120.410,85.981 121.827,85.981 125.200 M100.648 125.200 C 100.648 128.573,100.686 129.917,100.733 128.185 C 100.779 126.453,100.779 123.693,100.732 122.052 C 100.686 120.410,100.647 121.827,100.648 125.200 M301.636 131.525 C 301.875 131.720,302.131 132.117,302.205 132.407 C 302.326 132.884,302.341 132.878,302.369 132.343 C 302.388 131.974,302.174 131.643,301.800 131.461 C 301.283 131.211,301.260 131.219,301.636 131.525 M59.851 131.847 C 60.293 132.206,61.262 132.258,66.518 132.209 L 72.667 132.152 66.400 132.009 C 62.953 131.931,59.953 131.768,59.733 131.647 C 59.513 131.526,59.566 131.616,59.851 131.847 M90.333 132.199 C 91.983 132.246,94.683 132.246,96.333 132.199 C 97.983 132.152,96.633 132.114,93.333 132.114 C 90.033 132.114,88.683 132.152,90.333 132.199 M251.682 132.199 C 253.487 132.246,256.367 132.245,258.082 132.199 C 259.797 132.153,258.320 132.115,254.800 132.115 C 251.280 132.115,249.877 132.153,251.682 132.199 M275.907 132.200 C 275.839 132.310,277.602 132.369,279.825 132.331 C 287.190 132.206,287.941 132.108,281.949 132.054 C 278.694 132.024,275.976 132.090,275.907 132.200 M72.648 138.533 C 72.648 141.907,72.686 143.250,72.733 141.518 C 72.779 139.787,72.779 137.027,72.732 135.385 C 72.686 133.743,72.647 135.160,72.648 138.533 M87.314 138.533 C 87.315 141.907,87.353 143.250,87.399 141.518 C 87.446 139.787,87.446 137.027,87.399 135.385 C 87.352 133.743,87.314 135.160,87.314 138.533 M99.314 138.533 C 99.315 141.907,99.353 143.250,99.399 141.518 C 99.446 139.787,99.446 137.027,99.399 135.385 C 99.352 133.743,99.314 135.160,99.314 138.533 M113.981 138.533 C 113.981 141.907,114.019 143.250,114.066 141.518 C 114.112 139.787,114.112 137.027,114.066 135.385 C 114.019 133.743,113.981 135.160,113.981 138.533 M73.184 145.180 C 73.628 145.540,74.619 145.592,80.118 145.542 L 86.533 145.485 80.000 145.342 C 76.407 145.264,73.287 145.101,73.067 144.980 C 72.847 144.859,72.900 144.949,73.184 145.180 M99.851 145.180 C 100.295 145.540,101.286 145.592,106.784 145.542 L 113.200 145.485 106.667 145.342 C 103.073 145.264,99.953 145.101,99.733 144.980 C 99.513 144.859,99.566 144.949,99.851 145.180 M265.000 145.533 C 266.797 145.579,269.737 145.579,271.533 145.533 C 273.330 145.486,271.860 145.449,268.267 145.449 C 264.673 145.449,263.203 145.486,265.000 145.533 M291.667 145.533 C 293.463 145.579,296.403 145.579,298.200 145.533 C 299.997 145.486,298.527 145.449,294.933 145.449 C 291.340 145.449,289.870 145.486,291.667 145.533 " stroke="none" fill="#2c2c2c" fill-rule="evenodd"></path></g></svg>